<?xml version="1.0" standalone="no"?>
<!DOCTYPE svg PUBLIC "-//W3C//DTD SVG 20010904//EN"
 "http://www.w3.org/TR/2001/REC-SVG-20010904/DTD/svg10.dtd">
<svg version="1.0" xmlns="http://www.w3.org/2000/svg"
 width="4000.000000pt" height="4000.000000pt" viewBox="0 0 4000.000000 4000.000000"
 preserveAspectRatio="xMidYMid meet">
<metadata>
Created by potrace 1.14, written by Peter Selinger 2001-2017
</metadata>
<g transform="translate(0.000000,4000.000000) scale(0.100000,-0.100000)"
fill="#000000" stroke="none">
<path d="M24205 27186 c-86 -23 -154 -58 -198 -102 -45 -45 -319 -447 -387
-566 -17 -32 -36 -58 -42 -58 -5 0 -7 -4 -3 -9 3 -5 1 -12 -5 -16 -6 -3 -19
-23 -30 -43 -11 -20 -31 -55 -45 -77 -14 -22 -28 -47 -32 -55 -3 -8 -14 -26
-23 -40 -10 -14 -30 -47 -45 -75 -49 -90 -159 -280 -165 -285 -3 -3 -13 -21
-23 -40 -10 -19 -23 -44 -30 -55 -7 -11 -41 -72 -77 -135 -36 -63 -73 -128
-82 -145 -10 -16 -28 -50 -40 -75 -13 -25 -26 -46 -30 -48 -5 -2 -8 -12 -8
-23 0 -10 -3 -19 -7 -19 -5 0 -13 -10 -19 -23 -6 -12 -31 -60 -56 -107 -26
-47 -80 -148 -122 -225 -41 -77 -78 -144 -83 -150 -4 -5 -20 -35 -35 -65 -48
-96 -92 -175 -103 -182 -5 -4 -6 -8 -2 -8 5 0 -1 -13 -13 -30 -12 -16 -18 -30
-14 -30 3 0 2 -6 -4 -12 -5 -7 -29 -49 -52 -93 -23 -44 -45 -84 -48 -90 -4 -5
-7 -12 -8 -15 -2 -17 -39 -80 -46 -80 -5 0 -6 -4 -3 -10 3 -5 1 -10 -4 -10 -6
0 -10 -3 -9 -7 3 -11 -112 -237 -124 -244 -5 -3 -9 -9 -8 -13 1 -4 -106 -224
-238 -489 -250 -502 -283 -571 -284 -584 0 -4 -9 -20 -19 -35 -10 -14 -19 -33
-19 -42 0 -9 -4 -16 -10 -16 -5 0 -10 -4 -10 -9 0 -6 -20 -52 -44 -103 -24
-51 -45 -97 -46 -103 -1 -5 -11 -22 -21 -37 -10 -14 -19 -30 -19 -35 0 -5 -25
-60 -55 -121 -30 -62 -55 -119 -55 -127 0 -8 -3 -15 -8 -15 -4 0 -13 -15 -21
-32 -32 -74 -66 -149 -114 -248 -28 -58 -51 -107 -52 -110 -7 -30 -18 -50 -27
-50 -6 0 -8 -3 -5 -6 4 -4 -4 -28 -17 -53 -14 -25 -42 -84 -64 -131 -57 -122
-126 -268 -190 -400 -31 -63 -56 -117 -57 -120 0 -3 -28 -61 -62 -130 -33 -69
-93 -192 -133 -275 -40 -82 -109 -224 -153 -315 -45 -91 -81 -167 -82 -170 -3
-16 -101 -206 -110 -212 -5 -4 -7 -8 -2 -8 4 0 -4 -21 -18 -47 -14 -27 -25
-54 -25 -60 0 -7 -4 -13 -9 -13 -5 0 -12 -12 -16 -27 -3 -15 -15 -39 -26 -55
-11 -15 -18 -28 -16 -28 3 0 -30 -71 -73 -157 -124 -253 -170 -350 -170 -361
0 -5 -7 -15 -15 -22 -8 -7 -12 -16 -9 -21 3 -5 0 -9 -5 -9 -6 0 -10 -3 -9 -7
1 -5 -10 -33 -26 -63 -15 -30 -27 -56 -27 -57 2 -7 -65 -139 -74 -145 -5 -4
-6 -8 -2 -8 4 0 2 -10 -5 -22 -7 -13 -12 -27 -13 -31 0 -4 -6 -11 -13 -16 -8
-5 -13 -12 -13 -17 1 -17 -23 -74 -31 -74 -4 0 -7 -3 -6 -7 0 -5 -8 -28 -20
-53 -19 -42 -26 -47 -80 -64 -33 -9 -68 -19 -78 -21 -11 -2 -20 -4 -21 -5 -2
-2 -7 -4 -13 -5 -5 -1 -11 -4 -12 -5 -2 -1 -16 -4 -33 -6 -16 -2 -31 -8 -33
-14 -2 -5 -7 -8 -12 -5 -4 2 -27 -2 -51 -9 -39 -13 -468 -135 -494 -141 -5 -1
-17 -5 -25 -8 -8 -4 -26 -8 -40 -11 -14 -3 -63 -16 -110 -31 -47 -14 -92 -28
-100 -30 -72 -19 -201 -56 -225 -65 -16 -6 -30 -11 -30 -10 0 5 -92 -21 -107
-30 -10 -6 -29 -10 -43 -10 -14 0 -25 -4 -25 -9 0 -5 -8 -8 -17 -6 -10 1 -22
-1 -28 -5 -5 -4 -23 -11 -40 -15 -16 -5 -34 -9 -40 -11 -5 -2 -21 -5 -35 -8
-13 -3 -52 -15 -85 -25 -33 -11 -72 -22 -85 -25 -14 -3 -63 -17 -110 -32 -47
-14 -92 -27 -100 -29 -8 -2 -76 -22 -150 -45 -74 -22 -143 -42 -153 -45 -10
-2 -62 -18 -115 -34 -53 -17 -110 -33 -127 -37 -16 -4 -34 -9 -40 -13 -5 -3
-14 -6 -20 -7 -5 -1 -37 -10 -70 -20 -33 -10 -62 -19 -65 -19 -3 -1 -12 -4
-20 -8 -8 -3 -58 -18 -110 -33 -52 -14 -99 -29 -105 -32 -5 -3 -16 -7 -25 -8
-23 -3 -50 -11 -100 -27 -68 -22 -235 -73 -333 -101 -48 -14 -96 -30 -107 -36
-11 -6 -20 -8 -20 -5 0 2 -17 -2 -37 -9 -21 -8 -92 -31 -158 -51 -157 -48
-382 -118 -520 -162 -60 -19 -114 -35 -120 -36 -5 -1 -13 -6 -17 -12 -5 -6 -8
-6 -8 1 0 14 70 78 77 71 3 -3 20 10 39 28 19 19 34 32 34 29 0 -3 11 6 24 20
13 15 26 26 29 26 3 0 18 12 34 28 16 15 44 38 62 52 18 14 51 42 72 62 21 20
39 34 39 32 0 -3 15 10 34 28 64 62 118 108 128 108 5 0 7 4 3 9 -3 5 4 12 15
16 11 4 18 10 15 15 -3 5 6 12 20 16 13 3 23 10 20 14 -3 5 8 17 24 26 17 10
28 21 25 26 -3 4 1 8 8 8 7 0 19 9 26 20 7 12 18 18 24 14 6 -4 9 -3 6 2 -5 9
118 134 125 127 3 -2 12 8 21 22 10 15 22 23 29 19 7 -4 9 -4 5 0 -8 9 42 62
55 58 5 -1 7 1 4 5 -2 5 27 38 65 74 37 36 68 64 68 62 0 -2 8 5 18 15 11 9
17 20 15 25 -2 4 0 7 6 7 5 0 30 20 55 45 26 25 51 45 57 45 5 0 8 4 4 9 -3 5
4 12 15 16 11 4 18 11 15 16 -4 5 -1 9 4 9 6 0 42 30 80 68 89 85 97 92 107
84 4 -4 4 -1 0 6 -4 7 -1 15 8 18 9 3 13 10 11 15 -3 5 5 11 19 15 14 3 24 9
23 13 -3 9 41 51 54 51 5 0 7 5 4 10 -3 6 -2 10 3 10 4 0 44 35 87 78 44 42
83 76 88 74 5 -1 6 1 3 6 -3 5 17 32 44 60 28 29 50 54 50 57 0 3 12 17 26 30
15 14 23 25 19 25 -4 0 4 11 18 24 14 13 23 27 20 30 -4 3 -1 6 5 6 7 0 12 7
12 15 0 9 7 18 15 21 8 4 12 10 9 15 -3 6 0 16 6 24 18 21 -6 51 -26 34 -8 -6
-14 -8 -14 -4 0 4 -7 2 -15 -5 -8 -6 -19 -9 -25 -5 -5 3 -10 2 -10 -3 0 -6
-13 -15 -30 -21 -16 -5 -30 -15 -30 -21 0 -6 -4 -9 -9 -6 -5 3 -21 -6 -35 -19
-15 -14 -34 -25 -42 -25 -7 0 -14 -4 -14 -9 0 -5 -13 -14 -30 -21 -16 -7 -30
-17 -30 -22 0 -5 -4 -7 -8 -4 -5 3 -14 -4 -22 -14 -8 -10 -17 -17 -22 -14 -4
3 -8 0 -8 -7 0 -7 -3 -10 -6 -6 -3 3 -19 -8 -35 -24 -16 -16 -29 -27 -29 -23
0 4 -9 -3 -20 -16 -11 -13 -20 -19 -20 -14 0 5 -7 -2 -16 -14 -8 -12 -22 -22
-30 -22 -8 0 -14 -7 -14 -16 0 -8 -4 -13 -9 -9 -6 3 -14 -3 -20 -12 -6 -10
-11 -14 -11 -8 0 5 -7 -1 -16 -13 -8 -12 -20 -20 -25 -17 -5 4 -9 1 -9 -4 0
-6 -9 -20 -20 -31 -11 -11 -20 -17 -20 -14 0 4 -14 -8 -32 -24 -17 -17 -36
-29 -41 -25 -6 3 -8 2 -5 -3 6 -11 -28 -45 -36 -37 -3 4 -6 -1 -6 -11 0 -9 -4
-15 -9 -11 -6 3 -14 -3 -20 -12 -6 -10 -11 -14 -11 -10 0 4 -13 -6 -29 -22
-16 -16 -32 -27 -35 -24 -3 4 -6 -1 -6 -11 0 -9 -3 -15 -8 -12 -4 2 -25 -11
-46 -30 -21 -19 -42 -34 -48 -34 -5 0 -6 -4 -3 -10 3 -5 1 -10 -4 -10 -6 0
-26 -15 -45 -32 -64 -62 -119 -108 -128 -108 -5 0 -6 -4 -3 -10 3 -5 2 -10 -3
-10 -10 0 -63 -45 -139 -116 -23 -23 -43 -39 -43 -36 0 4 -13 -8 -30 -26 -16
-18 -34 -30 -40 -27 -6 4 -7 -1 -3 -11 4 -11 3 -15 -5 -10 -6 3 -18 -4 -26
-16 -9 -12 -16 -18 -16 -13 0 6 -5 2 -11 -7 -5 -10 -17 -18 -25 -18 -8 0 -12
-4 -9 -10 3 -5 -1 -10 -10 -10 -9 0 -14 -4 -11 -9 3 -4 -6 -13 -19 -19 -14 -7
-25 -16 -25 -22 0 -5 -6 -9 -12 -8 -7 2 -12 -2 -11 -9 2 -6 -7 -15 -20 -19
-12 -3 -34 -20 -49 -36 -16 -16 -31 -27 -35 -25 -10 5 -43 -30 -35 -37 3 -3
-2 -6 -11 -6 -9 0 -21 -8 -26 -17 -6 -10 -11 -15 -11 -11 0 7 -25 -11 -56 -40
-8 -7 -14 -10 -14 -6 0 4 -7 -1 -16 -12 -8 -10 -12 -12 -8 -4 4 8 -5 2 -19
-13 -16 -17 -32 -25 -40 -21 -6 4 -9 4 -5 -1 8 -8 -51 -51 -64 -47 -5 1 -8 -3
-8 -8 0 -6 -9 -10 -21 -10 -11 0 -18 -4 -15 -9 3 -4 -14 -16 -37 -25 l-42 -16
30 25 c17 15 40 35 53 46 12 10 25 19 28 19 4 0 14 8 23 18 9 11 63 59 121
107 58 49 116 99 130 113 14 13 42 38 63 56 21 17 67 58 102 91 34 33 100 94
145 135 45 41 135 127 200 190 65 63 173 167 240 230 68 63 149 141 182 173
33 31 64 57 69 57 5 0 9 6 9 14 0 8 5 16 11 18 30 10 323 299 422 417 201 238
181 287 -57 143 -37 -23 -72 -42 -77 -42 -5 0 -9 -4 -9 -10 0 -5 -15 -17 -32
-26 -18 -9 -36 -22 -40 -28 -4 -6 -8 -8 -8 -3 0 4 -9 -1 -19 -10 -11 -10 -26
-23 -33 -28 -7 -6 -35 -28 -63 -50 -27 -22 -56 -45 -65 -52 -31 -24 -166 -136
-198 -164 -19 -16 -38 -29 -42 -29 -5 0 -10 -4 -12 -8 -3 -8 -102 -93 -162
-140 -16 -12 -25 -22 -20 -22 5 0 -3 -8 -17 -18 -15 -9 -47 -35 -72 -57 -53
-47 -143 -126 -173 -152 -70 -60 -153 -132 -183 -161 -20 -17 -44 -35 -54 -38
-9 -3 -15 -10 -12 -15 4 -5 0 -9 -9 -9 -8 0 -16 -4 -18 -9 -2 -5 -46 -43 -98
-85 -52 -42 -112 -91 -134 -109 -21 -18 -46 -36 -55 -41 -9 -5 -20 -15 -26
-21 -11 -12 -81 -67 -103 -79 -10 -6 -9 0 2 23 9 17 16 33 16 36 0 3 6 13 15
21 8 9 13 20 10 25 -4 5 -1 9 4 9 6 0 11 6 11 14 0 7 7 19 15 26 8 7 12 16 9
21 -3 5 0 9 5 9 6 0 11 3 10 8 -2 14 13 52 21 52 7 0 19 35 21 57 0 5 7 12 15
16 8 5 12 12 9 18 -4 5 -1 9 5 9 6 0 8 5 5 10 -3 6 -2 10 3 10 9 0 18 20 27
58 2 8 11 22 21 33 9 10 14 19 10 19 -3 0 1 15 11 33 9 17 16 36 15 40 -1 4 4
10 12 13 8 3 12 12 9 20 -3 8 0 14 6 14 6 0 11 8 11 19 0 10 7 24 15 31 8 7
15 18 15 24 0 7 14 41 32 77 17 35 33 70 34 78 2 8 8 17 14 21 7 4 11 9 10 11
-2 7 16 49 75 174 31 66 57 122 57 125 0 3 8 19 19 36 10 17 19 39 19 48 0 9
4 16 8 16 7 0 33 53 36 73 0 4 6 11 11 15 6 4 12 16 13 27 2 11 8 22 13 23 5
2 9 10 9 18 0 8 5 14 12 14 6 0 9 3 5 6 -3 4 13 43 35 88 23 44 41 85 40 89
-1 4 5 10 13 13 8 3 12 10 9 15 -3 5 4 22 15 38 11 15 18 31 14 35 -3 3 -1 6
5 6 7 0 12 7 12 15 0 8 5 15 11 15 5 0 7 5 4 10 -4 6 -2 16 4 23 16 20 155
301 153 310 -1 4 3 7 9 7 5 0 7 5 4 10 -3 6 -3 10 2 10 4 0 19 25 33 55 14 30
27 55 30 55 3 0 6 10 7 22 1 11 6 24 11 27 10 7 115 219 110 224 -2 2 5 11 15
21 9 10 15 22 12 27 -4 5 -1 9 4 9 6 0 11 5 11 12 0 6 8 20 18 31 10 13 12 17
3 12 -8 -5 -2 8 13 28 16 20 26 37 22 37 -5 0 25 62 49 100 5 8 10 21 11 28 2
8 10 22 18 31 9 10 13 21 9 24 -3 4 -1 7 5 7 7 0 12 3 11 8 -2 15 14 52 22 52
5 0 8 3 7 8 -4 9 54 126 65 130 4 2 7 12 7 22 0 9 7 23 15 30 9 7 14 19 11 26
-3 7 2 15 10 18 9 3 12 10 9 16 -3 5 -1 10 4 10 6 0 11 3 10 8 -2 13 13 52 20
52 4 0 13 16 20 35 7 19 17 35 22 35 5 0 8 3 7 8 -3 11 46 112 54 112 5 0 8 9
8 20 0 10 8 23 18 29 9 5 16 13 15 18 -3 12 60 133 69 133 5 0 8 7 8 15 0 8 4
15 10 15 5 0 7 6 4 13 -3 8 2 19 10 26 8 6 27 38 42 69 16 31 32 59 36 62 4 3
14 22 23 43 8 20 20 37 25 37 6 0 9 3 8 8 -4 11 26 72 35 72 5 0 6 4 2 9 -3 6
3 14 12 20 10 6 14 11 10 11 -5 0 1 16 13 35 12 19 18 35 13 35 -4 0 0 5 10
11 9 6 15 14 12 20 -4 5 -1 9 4 9 6 0 11 7 11 15 0 8 5 15 10 15 6 0 9 3 8 8
-1 4 5 21 12 37 7 17 13 33 12 38 -1 4 5 7 13 7 8 0 14 3 14 8 -3 20 2 32 13
26 6 -4 8 -3 5 3 -7 11 14 63 26 63 4 0 7 7 7 15 0 8 4 15 10 15 5 0 7 6 4 13
-2 7 4 21 15 31 11 10 18 23 15 27 -3 5 0 9 6 9 6 0 9 4 5 9 -3 5 1 15 8 23 7
7 19 28 26 46 7 17 17 32 22 32 5 0 8 3 7 8 -4 11 26 72 35 72 5 0 5 5 2 10
-3 6 -1 10 5 10 6 0 9 4 6 9 -4 5 -3 11 1 13 5 1 17 21 28 43 10 22 28 54 40
70 11 17 18 30 16 30 -7 0 41 90 51 96 5 3 10 10 11 15 2 21 22 64 30 64 4 0
5 5 2 10 -3 6 -1 10 4 10 6 0 10 3 9 8 -3 13 25 62 35 62 6 0 8 3 4 6 -5 5 69
163 82 174 3 3 8 14 9 25 2 11 8 23 14 26 5 3 10 10 10 15 2 23 11 44 19 44 5
0 9 9 9 20 0 11 5 20 10 20 6 0 9 3 8 8 -3 14 79 172 86 165 4 -4 4 0 1 9 -3
8 0 22 7 29 7 8 14 21 16 29 2 8 8 17 13 18 5 2 7 8 3 13 -3 5 0 9 6 9 6 0 9
4 5 9 -3 5 1 15 8 23 7 7 14 16 16 20 10 31 73 158 81 163 6 4 8 11 5 16 -4 5
-1 9 5 9 6 0 8 5 5 10 -3 6 0 13 8 16 7 2 14 10 14 17 0 21 35 87 46 87 6 0 7
3 4 6 -3 4 -1 16 5 28 7 11 13 23 13 26 3 15 42 86 50 92 6 4 7 8 3 8 -3 0 8
28 25 63 17 34 31 67 32 72 0 6 7 18 15 28 8 9 15 23 16 30 2 26 17 57 27 57
6 0 8 3 4 6 -3 4 1 21 10 38 10 17 16 34 15 39 -1 4 3 7 8 7 5 0 9 3 8 8 -4
18 15 61 25 55 6 -4 8 0 4 9 -3 9 1 24 8 35 8 10 15 25 15 34 0 9 7 29 14 45
8 15 13 31 10 36 -3 4 0 8 7 8 7 0 10 3 6 6 -3 4 0 22 8 40 8 19 15 38 16 42
1 4 3 12 4 17 2 6 9 33 15 60 11 47 16 69 23 120 1 11 5 25 8 30 3 6 5 31 5
58 -1 26 4 47 9 47 6 0 3 5 -5 10 -11 7 -11 10 -2 10 7 0 10 5 6 11 -4 7 -7
40 -8 75 0 35 -3 64 -6 64 -3 0 -7 12 -8 27 -1 15 -6 31 -11 36 -5 5 -7 15 -5
22 3 6 -2 18 -11 25 -8 7 -15 19 -15 27 0 8 -10 24 -22 35 -13 11 -16 16 -8
12 8 -4 4 4 -10 18 -14 13 -28 23 -33 21 -4 -3 -11 6 -16 19 -6 13 -10 16 -11
8 0 -12 -2 -12 -9 -2 -4 8 -12 13 -17 13 -5 -1 -10 4 -10 9 -1 6 -3 13 -4 18
-1 4 -2 10 -1 15 0 4 -2 7 -7 7 -4 0 -8 13 -9 29 -2 30 -39 117 -58 137 -5 7
-19 24 -29 38 -10 14 -25 26 -32 26 -8 0 -14 4 -14 9 0 12 -77 47 -120 56 -45
8 -202 14 -214 7 -5 -3 -23 -6 -40 -8 -69 -6 -158 -35 -240 -79 -70 -37 -71
-38 -188 -310 -40 -93 -76 -171 -80 -173 -5 -2 -8 -10 -8 -18 0 -9 -5 -25 -12
-37 -7 -12 -13 -28 -14 -36 -2 -8 -6 -17 -11 -20 -4 -3 -9 -11 -10 -17 -1 -7
-15 -38 -30 -70 -15 -33 -28 -61 -28 -64 -4 -16 -42 -86 -50 -92 -6 -5 -6 -8
-1 -8 6 0 5 -5 -2 -12 -7 -7 -12 -20 -12 -30 0 -10 -4 -18 -10 -18 -5 0 -10
-9 -10 -20 0 -11 -5 -20 -10 -20 -6 0 -9 -3 -8 -7 1 -5 -5 -21 -12 -38 -7 -16
-14 -32 -15 -35 -1 -3 -21 -45 -44 -95 -24 -49 -58 -121 -76 -160 -18 -38 -76
-159 -129 -268 -53 -108 -96 -202 -96 -207 0 -6 -4 -10 -10 -10 -5 0 -10 -5
-10 -11 0 -15 -203 -423 -212 -427 -5 -2 -8 -9 -8 -16 0 -6 -18 -46 -40 -88
-21 -41 -36 -78 -33 -82 4 -3 2 -6 -4 -6 -5 0 -20 -24 -33 -52 -13 -29 -26
-55 -29 -58 -3 -3 -32 -57 -64 -120 -31 -63 -92 -182 -135 -265 -43 -82 -105
-202 -138 -265 -32 -63 -63 -118 -69 -122 -5 -4 -6 -8 -1 -8 5 0 3 -6 -3 -13
-22 -27 -70 -125 -64 -131 4 -3 2 -6 -4 -6 -5 0 -20 -24 -34 -52 -13 -29 -28
-56 -34 -60 -7 -5 -7 -8 0 -8 6 0 1 -7 -10 -16 -11 -8 -19 -17 -18 -19 4 -8
-9 -38 -34 -77 -13 -21 -21 -38 -18 -38 3 0 -6 -17 -19 -39 -14 -21 -32 -54
-41 -72 -9 -19 -26 -52 -38 -74 -36 -66 -121 -224 -177 -330 -29 -55 -70 -130
-91 -167 -21 -38 -35 -68 -31 -68 4 0 2 -4 -4 -8 -16 -11 -93 -159 -86 -166 3
-3 0 -6 -6 -6 -7 0 -12 -6 -12 -14 0 -7 -7 -19 -15 -26 -8 -7 -12 -16 -9 -21
3 -5 2 -9 -3 -9 -4 0 -19 -24 -32 -52 -13 -29 -27 -55 -30 -58 -7 -5 -221
-435 -296 -595 -26 -55 -81 -170 -123 -255 -41 -85 -75 -157 -75 -160 1 -3 -8
-17 -18 -32 -10 -14 -19 -29 -19 -32 0 -4 -53 -113 -117 -244 -64 -130 -117
-239 -118 -242 -1 -3 -30 -63 -64 -135 -64 -132 -129 -268 -206 -430 -42 -90
-52 -111 -98 -215 -13 -30 -33 -75 -45 -100 -11 -25 -32 -74 -47 -110 -14 -36
-32 -78 -40 -95 -7 -16 -23 -55 -35 -85 -11 -30 -27 -69 -35 -87 -8 -17 -15
-33 -15 -36 0 -2 -8 -22 -17 -43 -9 -22 -17 -41 -18 -44 -1 -3 -16 -51 -34
-106 -51 -160 -69 -264 -66 -384 3 -109 8 -147 27 -215 6 -22 13 -49 15 -60 3
-19 10 -41 29 -90 4 -11 8 -22 9 -25 3 -12 40 -86 50 -98 23 -30 72 -78 97
-96 16 -12 24 -25 20 -34 -4 -11 -1 -13 8 -7 8 5 11 4 7 -2 -9 -14 23 -113 35
-113 5 0 7 -4 3 -9 -3 -5 2 -16 10 -24 8 -9 15 -23 15 -32 0 -9 4 -14 8 -11 5
3 15 -6 22 -19 7 -14 18 -25 24 -26 9 0 -171 -63 -214 -75 -19 -5 -260 -84
-280 -91 -8 -4 -17 -7 -20 -7 -3 -1 -10 -4 -16 -8 -6 -4 -21 -9 -35 -12 -24
-4 -376 -120 -414 -136 -26 -11 -145 -52 -159 -55 -6 -1 -24 -7 -40 -14 -16
-6 -36 -13 -45 -14 -9 -1 -20 -5 -26 -8 -11 -7 -89 -33 -92 -31 -2 1 -18 -5
-38 -14 -19 -8 -35 -12 -35 -9 0 3 -10 -1 -22 -9 -13 -8 -43 -20 -68 -27 -55
-16 -52 -14 -70 -22 -38 -16 -286 -99 -297 -100 -7 0 -13 -5 -13 -10 0 -6 -3
-8 -6 -4 -3 3 -28 -3 -54 -13 -26 -10 -51 -16 -54 -13 -3 4 -6 2 -6 -4 0 -5
-25 -16 -55 -23 -30 -7 -55 -17 -55 -22 0 -4 -3 -7 -7 -6 -11 3 -206 -63 -220
-75 -7 -5 -13 -7 -13 -4 0 3 -28 -5 -62 -19 -34 -13 -70 -24 -80 -24 -10 0
-18 -4 -18 -10 0 -5 -10 -10 -23 -10 -13 0 -27 -4 -32 -8 -6 -5 -44 -19 -85
-33 -41 -13 -77 -26 -80 -29 -7 -7 -31 -13 -52 -14 -10 0 -18 -3 -18 -7 0 -4
-12 -10 -27 -14 -26 -6 -204 -67 -248 -85 -11 -5 -38 -14 -60 -21 -22 -6 -44
-15 -50 -19 -5 -3 -30 -12 -55 -20 -25 -7 -49 -17 -55 -22 -5 -4 -17 -8 -27
-8 -10 0 -18 -4 -18 -8 0 -4 -10 -9 -22 -9 -13 -1 -32 -6 -43 -11 -23 -11 -76
-31 -160 -62 -33 -12 -69 -26 -80 -30 -11 -4 -47 -18 -80 -30 -33 -12 -76 -28
-95 -35 -54 -20 -74 -28 -85 -31 -5 -1 -94 -34 -197 -73 -103 -39 -192 -71
-198 -71 -5 0 -10 -5 -10 -11 0 -5 -4 -8 -8 -5 -5 3 -19 0 -33 -7 -13 -7 -49
-21 -79 -31 -30 -10 -59 -23 -65 -27 -5 -5 -19 -9 -32 -9 -13 0 -23 -4 -23 -9
0 -8 -26 -18 -66 -26 -6 -2 -27 -10 -45 -18 -19 -8 -72 -29 -119 -47 -47 -18
-99 -38 -117 -46 -17 -8 -35 -14 -40 -14 -4 -1 -26 -9 -48 -20 -22 -11 -43
-19 -47 -20 -4 0 -19 -5 -35 -12 -15 -6 -30 -12 -33 -13 -3 -1 -18 -7 -35 -14
-16 -6 -53 -21 -82 -32 -29 -12 -55 -20 -59 -19 -4 1 -10 -3 -13 -8 -3 -6 -15
-12 -26 -14 -11 -1 -22 -5 -25 -8 -3 -3 -77 -34 -165 -69 -88 -36 -162 -69
-163 -73 -2 -4 -8 -6 -13 -2 -5 3 -9 1 -9 -5 0 -5 -9 -12 -20 -16 -23 -7 -54
-32 -123 -101 -89 -87 -135 -158 -178 -275 -38 -103 -48 -251 -24 -334 9 -27
17 -60 20 -74 2 -13 12 -32 21 -42 9 -11 13 -19 8 -19 -5 0 -4 -4 1 -8 6 -4
22 -23 35 -42 76 -112 220 -181 375 -181 39 1 79 3 90 6 11 2 39 9 63 15 23 6
50 14 60 19 15 8 46 21 62 26 3 1 40 18 83 38 43 20 84 37 90 37 7 0 21 7 31
15 10 8 23 12 27 9 5 -3 9 0 9 5 0 6 5 11 11 11 5 0 58 21 117 46 59 26 125
54 147 64 43 19 71 29 83 31 4 0 12 4 17 9 6 5 33 17 60 28 68 27 295 120 320
132 11 5 74 32 140 59 167 69 179 74 185 75 7 2 69 27 115 47 22 9 76 32 120
49 44 18 91 37 105 43 14 5 30 11 35 12 6 2 42 16 80 33 98 42 247 100 265
104 8 2 17 5 20 8 3 3 32 16 65 28 33 13 74 29 90 37 17 7 131 53 255 100 124
48 236 92 250 98 14 5 30 11 35 13 14 3 583 223 620 239 25 11 64 25 85 30 10
3 45 17 77 31 17 8 35 14 40 14 4 0 21 7 37 15 16 9 31 13 34 11 2 -3 18 2 34
10 15 8 77 32 136 53 59 22 121 45 137 52 17 7 32 13 35 13 4 1 112 40 150 54
8 3 17 6 20 7 3 1 18 7 33 13 15 7 39 15 53 18 13 3 27 10 30 15 3 5 15 9 28
9 12 0 27 5 33 11 6 6 17 11 24 12 8 2 30 8 49 16 71 27 116 44 135 52 72 29
331 121 347 122 10 1 18 4 18 8 0 5 62 26 100 35 3 0 19 6 35 13 17 7 66 26
110 41 44 15 123 43 175 63 52 19 136 49 185 67 50 17 97 34 105 37 8 3 20 7
25 9 39 12 194 66 210 74 11 5 49 19 85 30 36 12 74 26 85 30 55 22 91 35 100
35 6 1 18 4 28 8 31 12 52 20 62 22 6 2 17 4 25 6 8 2 17 6 20 9 8 8 204 72
214 70 5 -1 12 2 15 7 7 10 151 59 169 57 6 -1 12 2 12 7 0 5 8 9 18 9 10 0
23 5 30 12 7 7 12 8 12 4 0 -5 7 -3 15 4 8 7 15 10 15 6 0 -3 16 0 36 9 36 15
266 94 294 100 8 2 39 13 68 24 28 10 52 17 52 14 0 -3 6 -1 13 4 6 6 44 20
82 32 39 13 79 26 90 31 39 17 660 223 673 223 6 0 12 5 12 10 0 6 3 7 7 4 3
-4 12 -2 20 4 7 6 13 9 13 6 0 -3 35 7 78 22 42 15 80 29 84 30 12 2 36 10 56
18 9 3 24 7 32 9 8 2 104 33 213 69 109 36 205 65 213 65 8 0 14 5 14 12 0 6
3 9 6 5 3 -3 31 4 62 15 32 11 62 21 67 22 31 7 133 39 147 47 10 5 25 9 33 9
8 0 23 4 33 10 21 12 253 83 270 83 6 0 12 3 12 7 0 3 24 12 53 19 28 8 57 16
62 20 6 3 13 6 18 7 4 1 9 3 12 4 3 1 8 3 13 4 4 1 41 13 82 25 41 13 80 24
85 25 6 1 15 4 20 8 6 3 26 10 45 16 19 5 143 44 275 87 132 42 267 85 300 95
33 10 114 35 180 55 66 21 125 38 130 40 6 1 18 5 27 9 9 4 23 9 32 10 8 1 19
5 22 9 13 13 36 7 31 -7 -5 -13 18 -31 36 -28 4 1 7 -5 7 -14 0 -8 5 -12 10
-9 6 3 10 1 10 -5 0 -6 5 -8 10 -5 6 3 10 -1 10 -9 0 -14 24 -22 53 -17 4 0 7
-4 7 -10 0 -5 4 -8 8 -5 5 3 21 -1 36 -9 14 -8 24 -10 21 -6 -3 5 17 9 45 8
27 0 56 6 64 13 13 10 16 10 16 -1 0 -10 2 -11 8 -2 4 6 14 13 22 15 8 2 21 9
28 16 8 7 17 10 22 7 4 -3 11 2 14 11 3 8 10 12 16 9 6 -3 13 1 16 9 3 9 10
14 14 11 5 -3 16 5 24 17 9 12 16 18 16 13 0 -6 5 -2 11 8 6 9 14 15 20 12 5
-4 9 -1 9 5 0 6 5 8 10 5 6 -4 9 -2 8 3 -2 5 9 21 25 35 15 14 27 24 27 21 0
-3 16 14 36 38 19 23 43 49 52 56 9 6 12 12 7 12 -5 0 6 11 25 24 19 13 78 35
130 50 52 15 101 29 108 31 7 3 14 5 17 5 3 0 22 7 44 15 22 7 42 11 45 8 3
-4 6 -2 6 4 0 5 6 10 13 10 6 0 53 13 102 28 50 15 96 27 103 28 6 0 12 3 12
7 0 4 6 7 13 7 23 1 62 11 142 38 44 14 87 28 95 30 8 2 15 4 15 5 0 1 9 3 20
5 31 5 167 46 195 58 14 6 32 12 41 12 8 1 40 10 70 19 29 10 60 19 67 22 9 3
12 -4 9 -24 -2 -15 2 -40 9 -57 7 -16 13 -27 14 -23 0 4 8 1 18 -7 9 -8 26
-22 37 -31 11 -8 14 -12 6 -8 -9 4 -12 3 -7 -4 4 -6 13 -9 21 -6 8 3 20 2 26
-2 20 -12 129 -15 150 -3 11 5 19 6 19 1 0 -5 7 -9 14 -9 8 0 15 3 14 6 -2 19
4 24 12 11 7 -11 10 -11 10 -2 0 7 5 10 10 7 6 -3 10 -1 10 5 0 6 5 8 10 5 6
-3 10 -2 10 4 0 6 7 8 15 5 8 -4 17 1 21 10 3 9 10 13 15 10 5 -3 12 2 15 10
3 9 10 16 16 16 5 0 6 -6 2 -12 -7 -12 12 4 67 55 10 9 19 14 19 10 0 -5 4 -3
8 3 4 6 31 32 60 57 29 26 50 47 47 47 -3 0 0 6 7 14 7 8 16 12 21 9 4 -2 7 2
7 10 0 8 11 22 24 33 14 10 23 21 20 26 -3 4 2 8 10 8 9 0 16 6 16 13 0 23 32
44 90 61 30 9 56 16 57 16 2 1 8 2 15 5 67 22 153 43 159 39 4 -2 9 0 11 5 1
5 19 12 38 15 19 3 53 12 75 20 22 9 50 15 62 16 12 0 25 5 28 10 3 6 19 10
34 10 15 0 31 3 35 8 4 4 11 7 14 8 4 0 24 4 44 8 21 5 41 7 44 6 4 -1 10 2
13 7 3 5 26 14 51 20 25 6 86 23 135 37 50 14 128 35 175 48 47 12 87 25 90
28 3 3 16 6 30 8 14 1 32 5 40 9 18 8 17 7 60 17 19 5 40 12 45 16 6 5 15 8
20 9 21 0 80 13 90 19 5 4 19 7 30 8 11 1 31 6 45 11 14 6 28 9 33 6 4 -2 7 0
7 4 0 5 38 17 85 28 47 10 85 23 85 28 0 4 3 6 8 3 4 -2 54 8 110 23 56 16
102 26 102 23 0 -2 6 1 14 7 8 6 18 11 22 10 5 -1 11 0 14 1 3 1 12 3 20 5 70
17 221 58 246 66 17 5 40 11 50 14 10 2 71 18 134 35 63 16 126 33 140 35 14
3 32 8 40 12 8 3 40 11 70 19 30 7 80 20 110 28 49 13 310 83 335 90 6 1 45
11 88 21 42 10 77 23 77 27 0 5 4 7 8 4 5 -3 35 2 68 11 32 9 66 17 74 18 8 1
22 5 30 8 13 5 55 17 195 53 11 3 31 7 45 10 14 2 32 7 40 11 8 3 20 7 25 8 6
2 28 7 50 13 22 6 51 13 65 16 14 3 43 10 65 16 38 10 53 14 100 24 11 3 47
12 80 21 33 9 71 19 85 21 14 3 33 7 42 10 9 3 25 7 35 9 10 3 45 12 78 20 74
19 91 23 135 31 19 4 40 9 45 13 6 3 15 6 20 7 6 1 69 16 140 34 123 30 140
34 183 44 9 2 44 12 77 22 33 9 69 18 80 19 11 1 30 5 42 9 12 4 30 8 40 10
10 2 38 9 63 16 25 7 50 13 55 14 6 1 19 5 30 9 11 3 31 8 45 11 14 2 54 12
90 21 36 10 74 19 85 21 11 2 53 12 93 23 39 10 72 17 72 14 0 -3 6 0 14 6 7
6 34 14 60 17 25 4 46 11 46 16 0 5 3 7 8 5 4 -3 41 4 82 14 86 22 113 28 155
36 17 3 38 9 48 14 9 5 17 8 17 5 0 -2 20 2 45 10 25 7 45 11 45 8 0 -3 8 0
18 5 11 6 30 12 43 15 63 12 131 28 209 46 120 28 257 60 283 64 12 3 23 5 25
7 1 1 5 2 10 3 31 8 71 17 92 22 14 3 30 6 35 8 6 2 28 6 50 10 22 4 51 11 65
16 14 5 39 11 55 14 17 2 79 16 138 30 59 15 118 28 130 30 12 3 22 5 22 6 0
2 21 6 62 13 17 3 37 8 43 12 6 4 26 8 43 10 18 1 39 5 47 8 8 4 26 8 40 11
14 2 63 13 110 25 111 26 141 33 163 34 9 1 17 6 17 11 0 5 3 7 6 4 3 -3 22
-1 42 4 20 6 46 12 57 13 11 2 52 11 90 20 39 9 81 19 95 22 42 8 55 11 55 13
0 1 8 3 17 5 9 2 40 8 70 15 29 7 62 14 73 16 30 5 60 12 60 14 0 2 21 7 60
15 106 22 275 66 302 80 94 47 166 170 157 270 -6 87 -64 165 -133 182 -36 9
-107 9 -148 -1 -11 -2 -42 -8 -67 -11 -25 -4 -46 -10 -46 -14 0 -4 -15 -7 -32
-6 -18 1 -38 -1 -43 -6 -6 -4 -29 -10 -50 -13 -22 -2 -40 -5 -40 -6 0 -2 -21
-6 -65 -13 -31 -5 -112 -22 -205 -42 -17 -4 -37 -8 -45 -9 -8 -2 -40 -8 -70
-14 -30 -6 -68 -14 -84 -16 -16 -3 -55 -11 -85 -17 -31 -6 -63 -13 -71 -14 -8
-2 -15 -4 -15 -6 0 -1 -13 -3 -30 -4 -16 -2 -30 -4 -30 -5 0 -1 -7 -3 -15 -5
-72 -14 -180 -35 -200 -39 -36 -7 -131 -26 -160 -33 -14 -3 -37 -6 -52 -7 -16
0 -28 -3 -28 -7 0 -3 -35 -12 -77 -19 -43 -7 -86 -14 -95 -16 -84 -19 -174
-37 -193 -40 -11 -1 -20 -3 -20 -4 0 -1 -11 -3 -25 -6 -14 -2 -50 -9 -80 -16
-30 -6 -62 -13 -70 -15 -8 -1 -25 -4 -37 -5 -13 -1 -23 -5 -23 -8 0 -3 -10 -6
-22 -6 -43 -3 -108 -13 -116 -18 -5 -3 -22 -8 -38 -10 -48 -9 -228 -45 -249
-50 -11 -3 -65 -14 -120 -26 -55 -12 -109 -24 -120 -26 -11 -3 -29 -7 -40 -9
-11 -3 -31 -7 -45 -10 -32 -8 -64 -14 -95 -19 -13 -3 -28 -7 -32 -9 -5 -3 -25
-8 -47 -11 -21 -4 -88 -18 -150 -32 -61 -14 -122 -27 -136 -29 -14 -2 -25 -4
-25 -5 0 -1 -7 -3 -15 -5 -15 -3 -126 -27 -145 -31 -5 -1 -21 -4 -35 -7 -14
-3 -59 -13 -100 -22 -41 -10 -84 -19 -95 -21 -11 -2 -38 -8 -60 -13 -41 -10
-79 -18 -130 -28 -46 -8 -60 -11 -60 -13 0 -1 -7 -3 -15 -5 -27 -6 -74 -16
-100 -21 -14 -3 -65 -14 -115 -25 -112 -26 -114 -26 -160 -33 -20 -3 -45 -10
-54 -16 -10 -5 -20 -7 -23 -5 -2 3 -20 0 -39 -5 -19 -6 -47 -13 -64 -16 -43
-8 -60 -12 -60 -14 0 -1 -11 -3 -25 -5 -33 -5 -53 -9 -190 -40 -63 -14 -124
-27 -135 -30 -29 -6 -47 -10 -180 -41 -66 -15 -123 -33 -127 -39 -5 -6 -8 -4
-8 5 0 9 -3 11 -8 5 -7 -10 -14 -12 -57 -21 -100 -20 -104 -21 -107 -23 -2 -2
-14 -4 -27 -7 -13 -2 -60 -14 -105 -25 -45 -12 -92 -23 -106 -26 -14 -2 -89
-20 -168 -39 -79 -19 -148 -32 -153 -28 -5 3 -9 0 -9 -5 0 -6 -13 -11 -29 -11
-17 0 -33 -5 -36 -10 -4 -6 -11 -8 -16 -5 -5 4 -15 3 -21 -2 -7 -4 -22 -8 -33
-10 -29 -3 -78 -14 -95 -20 -20 -8 -39 -12 -77 -18 -18 -3 -50 -11 -72 -19
-43 -14 -52 -8 -25 18 8 9 13 16 10 16 -7 0 45 82 57 91 5 3 10 12 11 20 4 23
30 73 41 81 5 4 6 8 1 8 -5 0 -3 7 4 15 7 8 10 15 7 15 -3 0 0 19 7 43 10 35
14 146 6 155 -3 3 -7 19 -9 37 0 8 -10 24 -21 35 -12 12 -18 25 -15 30 3 5 -6
12 -20 16 -13 3 -23 9 -21 13 2 3 -2 11 -9 18 -11 10 -15 10 -18 0 -3 -7 -6
-4 -6 7 -1 16 -3 17 -18 5 -9 -8 -14 -9 -10 -3 4 7 -5 16 -21 23 -25 11 -27
15 -28 79 -1 42 -7 79 -18 100 -16 31 -96 119 -96 106 0 -4 -7 -1 -15 6 -8 7
-15 9 -15 5 0 -4 -6 -3 -12 3 -34 28 -241 36 -328 13 -70 -18 -124 -34 -135
-40 -5 -3 -18 -7 -28 -8 -10 -2 -33 -10 -52 -18 -20 -8 -39 -15 -43 -17 -47
-17 -232 -230 -232 -267 0 -6 -5 -11 -11 -11 -5 0 -8 -4 -5 -9 4 -5 3 -11 -2
-13 -10 -4 -57 -100 -54 -110 1 -5 -3 -8 -10 -8 -6 0 -9 -3 -6 -6 4 -3 0 -20
-7 -38 -21 -50 -41 -160 -39 -211 2 -46 15 -109 27 -122 5 -7 7 -13 3 -13 -7
0 23 -37 48 -59 10 -9 24 -22 31 -28 8 -7 18 -13 24 -13 6 0 11 -3 11 -7 0 -5
14 -17 30 -28 29 -20 40 -45 19 -45 -6 0 -7 -5 -2 -12 9 -15 13 -35 15 -65 0
-13 5 -23 11 -23 7 0 7 -3 2 -9 -6 -5 -71 -23 -145 -41 -74 -17 -146 -35 -160
-40 -20 -7 -75 -21 -142 -36 -5 -1 -9 -2 -10 -4 -2 -1 -19 -4 -38 -7 -19 -2
-36 -8 -38 -13 -2 -5 -10 -6 -17 -4 -8 3 -20 2 -27 -2 -14 -9 -17 -10 -63 -19
-16 -3 -37 -8 -45 -11 -8 -3 -26 -8 -40 -10 -14 -3 -42 -10 -64 -15 -21 -6
-40 -9 -42 -6 -2 2 6 23 18 48 11 24 21 50 21 57 0 6 4 12 9 12 5 0 6 5 3 10
-3 6 -1 10 5 10 7 0 10 7 6 15 -3 8 -1 15 4 15 4 0 11 14 15 31 4 17 13 33 21
36 8 3 12 9 9 13 -6 9 46 132 60 142 5 4 6 8 2 8 -4 0 3 20 17 44 13 24 22 47
19 50 -4 3 -1 6 6 6 7 0 10 4 6 9 -3 5 2 17 11 25 8 9 12 16 9 16 -4 0 2 16
14 36 12 19 21 42 21 50 0 8 5 14 11 14 5 0 7 5 4 10 -3 6 -2 10 4 10 6 0 8 7
5 15 -4 8 -2 15 2 15 5 0 15 15 23 33 26 60 86 182 93 187 3 3 10 18 13 33 4
15 12 27 18 27 6 0 8 3 4 6 -3 3 5 25 18 49 13 23 22 45 18 48 -3 4 2 9 11 13
9 3 14 10 11 14 -3 5 1 14 8 22 7 7 14 15 15 18 0 3 5 16 10 30 5 14 10 29 10
34 0 5 4 12 9 15 14 10 55 91 46 91 -4 0 -1 5 7 10 8 5 15 15 15 22 1 7 7 12
14 10 7 -1 10 2 6 7 -3 6 6 33 20 61 14 27 22 50 18 50 -5 0 -1 6 7 13 22 18
42 56 35 67 -4 6 -2 10 3 10 9 0 58 91 54 103 -1 4 3 7 9 7 5 0 7 5 4 10 -3 6
-2 10 3 10 8 0 16 16 20 43 1 4 8 15 17 23 8 9 13 20 10 25 -4 5 -2 9 2 9 5 0
20 25 33 55 13 30 28 55 32 55 4 0 7 3 7 8 -3 15 23 72 34 72 6 0 7 3 4 7 -4
3 0 15 10 25 9 10 13 18 10 18 -9 0 44 114 57 122 6 4 8 8 3 8 -4 0 -1 13 8
30 8 16 14 31 13 32 -2 2 8 21 22 43 14 22 24 41 23 42 -5 5 39 98 48 104 6 3
10 10 10 15 -1 5 4 23 10 39 7 17 11 33 10 38 0 4 4 7 9 7 5 0 9 3 8 8 -1 7 4
20 38 97 10 22 18 42 19 45 1 3 15 34 32 70 17 35 30 67 27 71 -2 4 3 9 11 13
8 3 15 13 15 21 0 9 9 35 19 58 38 85 54 122 57 135 1 8 11 23 21 35 12 14 13
18 3 12 -12 -7 -13 -6 -4 6 6 8 17 31 23 52 7 20 17 37 22 37 6 0 8 4 4 9 -3
5 -1 12 5 16 6 4 8 10 5 15 -3 5 0 14 7 22 7 7 15 22 16 33 2 11 7 22 10 25 4
3 8 12 10 20 2 8 10 31 19 50 26 61 31 72 83 205 58 147 69 173 81 197 5 10 9
25 9 33 0 8 4 15 8 15 5 0 9 6 10 13 3 32 10 51 20 55 7 2 10 7 7 12 -2 4 6
35 19 68 13 33 21 63 18 66 -3 3 0 6 7 6 7 0 9 5 6 10 -3 6 -1 10 4 10 6 0 10
3 9 8 -1 4 4 23 12 42 7 19 14 40 15 45 1 6 7 21 13 35 18 42 25 65 24 73 -1
4 3 7 10 7 6 0 9 3 5 6 -3 4 0 19 8 34 8 15 11 30 8 34 -4 3 0 6 7 6 7 0 10 3
7 6 -3 4 -1 16 5 28 7 11 13 27 14 35 2 8 6 17 11 20 4 3 9 17 11 31 1 13 6
27 10 30 6 4 10 16 16 45 1 6 8 20 14 33 7 12 10 22 6 22 -3 0 1 11 10 25 9
14 14 30 11 35 -3 6 -1 10 4 10 6 0 11 9 11 21 0 11 4 18 9 15 4 -3 8 5 7 17
-1 12 2 25 6 28 5 3 10 15 13 27 2 11 8 29 14 40 6 11 7 22 4 26 -3 3 -1 6 6
6 8 0 11 7 7 15 -3 8 0 18 7 22 7 5 12 13 13 18 1 18 17 70 23 75 7 6 40 96
47 130 3 13 11 28 17 32 7 4 8 8 3 8 -5 0 -3 7 4 15 7 8 10 15 6 15 -4 0 2 17
13 39 11 21 17 41 14 45 -4 3 -2 6 4 6 5 0 10 7 11 15 1 8 3 22 4 30 1 8 6 15
11 15 6 0 7 3 4 7 -4 3 0 17 8 30 9 13 13 23 10 23 -2 0 6 25 20 55 13 30 22
55 20 55 -2 0 4 19 14 43 21 49 34 80 35 87 5 20 41 107 49 118 5 6 6 12 2 12
-4 0 -2 6 4 13 6 8 8 17 4 20 -3 4 0 7 7 7 7 0 11 3 8 6 -4 3 0 17 7 31 8 15
12 30 9 35 -3 4 0 8 5 8 6 0 10 3 9 8 0 4 2 16 6 27 30 77 34 93 29 99 -4 3
-1 6 6 6 8 0 11 7 7 15 -3 8 -1 15 4 15 6 0 10 9 10 19 0 11 4 22 10 26 5 3 7
12 3 20 -3 8 -1 15 4 15 5 0 10 6 11 13 3 30 16 72 23 77 4 3 10 20 14 37 3
18 10 45 16 60 13 33 21 76 23 121 0 17 5 32 10 32 5 0 3 6 -3 14 -7 8 -8 17
-3 20 10 6 9 36 -2 54 -4 6 -3 12 3 12 6 0 6 11 1 31 -5 16 -7 36 -4 44 3 7 0
16 -5 20 -6 3 -9 11 -5 16 3 5 0 16 -6 24 -6 8 -9 19 -5 25 3 5 1 10 -4 10 -6
0 -11 6 -11 14 0 7 -7 19 -15 26 -8 7 -15 20 -15 30 0 10 -7 21 -16 24 -8 3
-12 10 -9 16 5 9 -1 12 -21 9 -3 0 -14 9 -23 20 -10 11 -21 18 -25 14 -3 -3
-6 -1 -6 5 0 6 -7 9 -15 5 -9 -3 -15 -2 -14 3 2 7 -5 58 -16 114 0 3 -13 31
-28 62 -24 48 -51 79 -112 127 -10 7 -45 19 -90 29 -53 11 -227 0 -249 -16 -6
-5 -21 -9 -33 -10 -12 0 -43 -10 -68 -21 -25 -11 -48 -20 -51 -21 -4 0 -6 26
-6 58 0 37 -7 70 -20 95 -21 43 -53 78 -62 69 -4 -3 -12 3 -20 13 -7 10 -18
15 -24 11 -7 -4 -12 -2 -12 4 0 6 -4 8 -10 5 -5 -3 -19 -1 -31 6 -15 8 -19 8
-15 0 4 -6 2 -11 -4 -11 -8 0 -10 13 -5 42 11 63 8 123 -9 162 -8 20 -12 36
-9 36 10 0 -40 36 -77 56 -50 26 -164 26 -265 0z m71 -1753 c-3 -10 -6 -40 -7
-68 -1 -27 -7 -59 -13 -70 -5 -11 -11 -29 -13 -39 -2 -11 -11 -28 -20 -38 -9
-10 -12 -18 -7 -18 5 0 1 -5 -9 -11 -9 -6 -15 -14 -12 -20 4 -5 2 -9 -3 -9
-13 0 -68 -90 -64 -104 2 -6 0 -8 -3 -4 -9 8 -65 -70 -65 -90 0 -7 -4 -10 -10
-7 -5 3 -10 -1 -10 -9 0 -9 -8 -24 -17 -34 -10 -10 -19 -25 -21 -33 -2 -8 -10
-18 -18 -22 -8 -5 -12 -12 -9 -18 4 -5 1 -9 -4 -9 -6 0 -11 -7 -11 -15 0 -9
-7 -18 -15 -21 -8 -4 -12 -10 -9 -15 3 -5 1 -9 -5 -9 -5 0 -13 -10 -17 -22 -6
-20 -13 -31 -41 -63 -7 -7 -13 -18 -13 -24 0 -5 -6 -16 -13 -23 -7 -7 -24 -32
-37 -55 -13 -23 -28 -39 -33 -36 -6 3 -7 1 -3 -5 3 -6 1 -16 -6 -24 -7 -7 -22
-30 -33 -50 -11 -21 -22 -38 -26 -38 -4 0 -12 -13 -19 -30 -7 -16 -16 -30 -21
-30 -5 0 -9 -7 -9 -15 0 -8 -4 -15 -9 -15 -5 0 -14 -13 -21 -30 -7 -16 -17
-30 -22 -30 -5 0 -6 -4 -3 -10 3 -5 -3 -15 -14 -21 -11 -7 -17 -19 -13 -27 3
-10 1 -13 -6 -8 -7 4 -12 1 -12 -8 0 -9 -4 -16 -10 -16 -5 0 -10 -7 -10 -15 0
-8 -9 -20 -19 -27 -10 -6 -17 -17 -14 -23 2 -7 -3 -15 -12 -19 -9 -3 -13 -10
-10 -16 3 -5 -1 -10 -9 -10 -9 0 -15 -4 -13 -8 1 -5 -17 -34 -40 -66 -24 -31
-43 -59 -43 -62 0 -5 -11 -20 -37 -49 -7 -7 -13 -18 -13 -23 0 -5 -9 -17 -20
-27 -11 -10 -17 -22 -14 -26 3 -5 1 -9 -5 -9 -5 0 -13 -9 -16 -20 -4 -11 -10
-18 -14 -16 -4 3 -18 -13 -31 -35 -14 -21 -28 -39 -32 -39 -5 0 -8 -4 -8 -9 0
-6 -13 -24 -30 -42 -16 -18 -28 -34 -26 -36 4 -4 -17 -31 -68 -86 l-29 -32 19
35 c11 19 22 37 27 38 4 2 7 9 7 14 0 10 15 37 79 138 8 14 16 27 16 30 0 3
10 19 22 36 12 17 20 34 16 38 -3 3 -2 6 4 6 9 0 28 32 32 53 0 4 10 16 21 27
12 12 18 25 15 29 -2 5 2 12 11 15 8 3 13 10 9 15 -3 6 0 13 8 18 7 4 18 19
24 33 7 14 24 43 38 65 14 22 28 47 31 55 4 8 14 23 21 32 8 9 12 21 9 27 -4
5 -1 13 6 18 7 4 20 17 28 27 13 18 13 19 0 12 -12 -6 -12 -5 1 6 8 7 18 21
22 31 3 9 11 17 18 17 6 0 9 6 6 14 -3 8 1 17 9 20 9 3 12 10 9 16 -3 5 -1 10
4 10 6 0 11 7 11 15 0 8 5 15 11 15 5 0 7 5 4 10 -3 6 1 13 9 16 9 3 16 12 16
20 0 8 5 14 10 14 6 0 10 5 10 11 0 7 16 34 35 60 19 27 35 52 35 56 0 3 11
21 25 39 14 18 25 37 25 43 0 6 4 11 9 11 5 0 11 8 15 18 3 9 28 51 56 92 27
41 68 104 90 140 38 60 204 321 232 364 24 37 101 131 116 144 21 16 24 15 18
-5z m-543 -1420 c-47 -115 -115 -274 -148 -348 -50 -112 -65 -149 -65 -161 0
-8 -4 -14 -10 -14 -5 0 -10 -9 -10 -20 0 -11 -5 -20 -12 -20 -6 0 -8 -3 -5 -6
4 -4 1 -19 -7 -33 -7 -14 -20 -42 -29 -61 -85 -187 -86 -189 -129 -217 -24
-15 -45 -31 -48 -34 -3 -3 -16 -12 -30 -19 -13 -7 -49 -29 -80 -49 -30 -19
-58 -34 -62 -33 -5 1 -8 -3 -8 -8 0 -5 -5 -10 -11 -10 -5 0 -27 -11 -47 -25
-20 -14 -38 -21 -40 -15 -3 9 46 82 61 88 4 2 5 8 1 13 -3 5 -1 9 4 9 4 0 18
18 31 40 12 22 25 40 29 40 4 0 15 18 26 40 10 21 25 41 33 44 8 3 11 10 8 16
-3 6 1 13 9 16 9 3 16 12 16 20 0 8 5 14 10 14 6 0 10 7 10 15 0 8 5 15 10 15
6 0 10 5 10 11 0 6 6 17 13 24 27 31 37 45 37 50 -1 7 53 79 63 83 4 2 7 8 7
12 0 15 61 100 71 100 5 0 8 3 8 8 -3 20 2 33 11 27 6 -4 9 -2 8 3 -3 11 17
45 44 73 9 9 19 26 22 36 3 11 14 28 24 39 22 26 39 52 57 89 8 17 14 26 15
21 0 -13 60 81 60 94 0 6 4 10 9 10 5 0 14 14 21 30 7 17 16 30 21 30 4 0 1
-17 -8 -37z m-607 -1385 c-7 -40 -18 -58 -33 -58 -8 0 -11 -4 -8 -10 5 -8 -18
-15 -27 -8 -2 1 -22 -11 -45 -25 -24 -15 -46 -27 -50 -27 -17 0 -113 -44 -113
-52 0 -5 -4 -6 -10 -3 -5 3 -10 0 -10 -7 0 -11 -2 -11 -9 0 -6 11 -11 10 -25
-3 -9 -9 -16 -14 -16 -11 0 3 -20 -3 -45 -14 -25 -11 -45 -17 -45 -14 0 2 -11
-3 -25 -12 -14 -9 -25 -12 -25 -8 0 5 -4 3 -9 -5 -5 -7 -11 -9 -14 -4 -18 29
169 148 338 215 28 11 61 25 75 31 14 5 33 12 44 14 10 2 26 8 35 13 22 13 22
13 17 -12z m-210 -510 c-14 -26 -22 -48 -20 -51 2 -2 -2 -10 -11 -17 -8 -7
-15 -18 -15 -24 0 -7 -9 -30 -19 -52 -39 -80 -81 -174 -79 -177 1 -1 -8 -20
-19 -42 -12 -22 -35 -69 -51 -105 -44 -96 -91 -198 -120 -260 -14 -30 -27 -57
-27 -60 -1 -5 -24 -54 -86 -185 -18 -38 -33 -72 -34 -75 -1 -3 -11 -26 -23
-52 -12 -26 -22 -52 -22 -57 0 -6 -4 -11 -10 -11 -5 0 -10 -6 -10 -14 0 -7
-26 -67 -57 -132 -31 -66 -57 -121 -58 -124 -1 -3 -8 -18 -15 -35 -7 -16 -14
-32 -15 -35 -1 -3 -16 -36 -34 -75 -18 -38 -46 -97 -61 -130 -15 -33 -40 -87
-56 -120 -15 -33 -28 -62 -29 -65 -2 -9 -33 -77 -63 -141 -17 -35 -33 -71 -36
-79 -3 -8 -10 -22 -16 -30 -10 -16 -80 -168 -85 -185 -9 -31 -30 -75 -37 -75
-4 0 -8 -6 -8 -12 0 -7 -12 -38 -27 -68 -14 -30 -27 -57 -28 -60 -1 -3 -5 -17
-9 -32 -5 -16 -12 -28 -16 -28 -5 0 -11 -13 -15 -30 -4 -16 -10 -30 -14 -30
-4 0 -8 -6 -8 -12 -1 -12 -73 -172 -126 -277 -20 -41 -27 -46 -87 -64 -36 -10
-74 -20 -85 -21 -11 -2 -27 -6 -35 -9 -14 -5 -51 -14 -75 -18 -5 -1 -20 -5
-33 -10 -12 -5 -33 -11 -45 -13 -12 -3 -65 -17 -117 -31 -52 -14 -103 -28
-113 -30 -10 -2 -27 -7 -37 -10 -10 -3 -28 -8 -39 -10 -12 -3 -30 -7 -41 -9
-19 -5 -19 -4 2 37 12 23 21 45 20 50 -1 4 3 7 9 7 5 0 7 5 4 10 -3 6 -3 10 2
10 4 0 21 28 37 63 16 34 37 74 47 88 10 14 16 29 12 33 -3 3 -1 6 5 6 7 0 11
3 10 8 -2 10 14 46 24 53 5 3 10 16 11 27 1 12 4 22 8 22 4 0 12 15 20 33 7
17 20 43 28 56 8 13 16 31 17 39 2 8 8 18 14 22 7 4 12 10 11 13 0 10 26 71
36 80 4 5 8 12 9 15 1 14 39 87 47 90 4 2 7 8 7 14 0 15 81 177 91 184 5 3 7
10 4 15 -4 5 -1 9 4 9 6 0 10 3 9 8 -3 9 45 106 55 110 4 2 5 8 1 13 -3 5 0 9
5 9 6 0 11 3 10 8 -2 15 14 52 22 52 5 0 8 3 7 8 -2 10 35 85 47 94 6 4 6 8 1
8 -5 0 -2 8 7 18 10 10 15 21 12 24 -3 3 1 11 10 18 8 7 15 21 15 31 0 11 4
19 9 19 8 0 22 35 18 44 -1 2 6 13 16 23 9 11 15 22 12 25 -3 3 1 11 10 18 8
7 15 19 15 26 0 8 5 14 12 14 6 0 8 3 5 7 -4 3 4 25 18 48 13 23 21 45 18 49
-3 3 -1 6 6 6 7 0 9 5 6 10 -3 6 -3 10 2 10 4 0 14 15 22 33 8 17 18 34 22 37
4 3 9 14 11 25 1 10 11 27 21 37 10 10 15 23 12 28 -4 6 -1 10 5 10 6 0 9 4 6
8 -3 5 4 19 15 30 10 12 19 24 18 27 -3 12 24 65 33 65 5 0 6 5 3 10 -3 6 -1
10 6 10 7 0 10 3 7 6 -3 3 11 35 31 72 20 37 43 82 50 100 7 17 17 32 21 32 5
0 11 14 15 30 4 17 10 30 15 30 5 0 11 14 15 30 4 17 10 30 15 30 5 0 12 10
16 23 3 12 11 28 17 36 6 7 12 20 13 29 2 8 6 18 11 21 5 3 17 25 28 48 11 24
23 43 28 43 4 0 7 6 7 13 0 7 12 30 26 51 15 21 20 36 13 32 -8 -4 -7 -2 2 6
9 7 19 23 23 36 4 12 12 22 17 22 5 0 9 9 9 20 0 11 5 20 11 20 5 0 7 5 4 10
-3 6 -2 10 4 10 6 0 13 11 17 25 3 13 12 29 20 36 8 6 14 20 14 30 0 11 4 19
9 19 5 0 13 10 17 23 8 26 43 59 55 51 5 -3 9 0 9 6 0 6 5 8 10 5 6 -3 10 -1
10 5 0 6 4 9 9 5 5 -3 17 2 25 11 9 8 16 12 16 8 0 -3 6 -1 13 5 8 6 17 8 20
4 4 -3 7 -1 7 6 0 7 6 11 14 8 8 -3 17 1 20 9 3 9 10 12 16 9 5 -3 10 -1 10 5
0 6 5 8 10 5 6 -3 10 -1 10 4 0 6 8 11 18 11 10 0 29 10 42 23 14 12 25 21 25
19 0 -9 55 19 55 28 0 6 4 9 9 5 5 -3 13 0 16 6 4 5 13 8 21 5 9 -3 11 0 7 11
-4 11 -3 14 5 9 7 -4 19 0 28 8 9 9 20 14 25 11 5 -4 9 -1 9 5 0 6 5 8 10 5 6
-3 10 -1 10 4 0 6 7 11 15 11 9 0 18 6 21 14 3 8 12 12 20 9 8 -3 14 1 14 8 0
7 2 10 5 7 3 -3 -6 -25 -19 -50z"/>
<path d="M18784 19917 c-8 -4 -14 -5 -14 -1 0 3 -7 1 -15 -6 -8 -7 -15 -10
-15 -7 0 3 -26 -3 -57 -14 -32 -11 -60 -20 -63 -21 -37 -7 -125 -41 -141 -54
-8 -8 -19 -14 -23 -14 -17 0 -106 -103 -161 -186 -79 -119 -140 -255 -161
-358 -7 -35 -6 -129 1 -171 13 -69 36 -103 116 -165 24 -19 46 -38 47 -42 2
-4 9 -8 16 -8 7 0 13 -16 13 -41 1 -56 23 -131 45 -152 10 -10 18 -22 18 -28
0 -6 5 -7 10 -4 6 3 10 -1 10 -9 0 -10 6 -13 17 -9 11 4 14 3 9 -5 -4 -7 -1
-12 7 -12 8 0 18 -7 21 -16 3 -8 10 -12 16 -9 5 3 10 -1 10 -10 0 -9 5 -13 10
-10 6 3 10 1 10 -4 0 -6 7 -11 15 -11 8 0 15 -5 15 -12 0 -6 3 -8 7 -5 3 4 14
0 24 -9 9 -8 29 -16 43 -18 14 -1 29 -6 34 -11 4 -4 1 -5 -7 0 -9 5 -12 4 -7
-3 4 -6 13 -9 21 -5 9 3 15 -1 15 -8 0 -11 3 -11 10 1 5 8 10 10 10 5 0 -11
33 -12 60 -2 26 9 75 20 82 19 5 -1 7 3 5 10 -1 7 4 12 11 13 7 0 17 7 22 15
5 8 12 12 15 8 3 -3 24 11 46 33 21 21 39 36 39 34 0 -2 11 7 25 21 14 14 25
29 25 34 0 6 3 9 8 8 11 -4 82 68 75 76 -4 3 1 6 10 6 9 0 17 5 17 10 0 6 18
29 40 51 22 22 40 45 40 50 0 6 5 7 12 3 6 -4 8 -3 5 3 -6 9 1 21 43 70 5 7
22 34 36 60 14 26 33 54 42 61 9 6 13 12 9 12 -3 0 5 21 18 48 38 75 56 139
58 200 1 73 -5 122 -16 122 -4 0 -7 6 -5 13 4 17 -41 79 -53 72 -5 -4 -9 1 -9
10 0 9 -4 14 -9 11 -5 -4 -11 -2 -13 3 -1 5 -10 11 -18 13 -8 2 -18 6 -21 10
-3 5 -17 9 -31 10 -25 2 -29 12 -15 35 4 7 3 22 -3 33 -8 15 -8 20 2 20 8 0 9
3 3 8 -5 4 -11 16 -12 27 -7 68 -50 130 -115 166 -13 7 -25 14 -28 15 -3 0
-12 3 -20 7 -50 19 -258 29 -286 14z"/>
<path d="M30146 16264 c-111 -26 -231 -106 -301 -199 -193 -256 -147 -631 100
-821 102 -80 216 -115 350 -110 93 4 113 7 173 27 46 15 142 72 165 97 27 30
25 81 -3 104 -28 23 -59 18 -110 -17 -200 -137 -451 -86 -581 116 -112 175
-85 424 63 565 87 84 174 119 288 117 90 -1 136 -16 216 -68 37 -25 76 -45 86
-45 27 0 68 45 68 74 0 46 -124 131 -231 159 -70 18 -208 18 -283 1z"/>
<path d="M21999 16248 c-9 -7 -20 -22 -25 -33 -11 -22 -12 -984 -1 -1026 11
-44 40 -49 281 -49 197 0 232 2 290 20 146 46 240 170 238 316 -1 117 -46 194
-139 241 l-59 29 44 39 c119 103 114 279 -11 396 -12 11 -46 32 -77 47 -54 27
-57 27 -290 30 -178 2 -239 -1 -251 -10z m444 -131 c16 -3 43 -14 60 -24 82
-48 91 -198 15 -252 -46 -33 -84 -39 -243 -40 l-160 -1 1 148 c1 81 2 154 3
162 1 13 24 15 148 13 82 0 161 -3 176 -6z m40 -461 c46 -8 107 -45 129 -78
23 -35 32 -119 17 -168 -16 -51 -74 -105 -131 -121 -47 -12 -363 -17 -375 -5
-4 4 -8 89 -8 189 0 134 3 183 12 187 16 7 308 3 356 -4z"/>
<path d="M25092 16244 c-26 -18 -30 -69 -8 -100 13 -17 29 -19 173 -21 87 -1
165 -2 174 -2 14 -1 15 -51 15 -461 0 -363 3 -465 14 -484 14 -27 57 -42 90
-31 45 14 47 32 46 518 -1 450 -1 457 19 458 11 0 72 1 135 0 168 0 197 5 213
37 17 35 11 68 -16 87 -33 23 -822 22 -855 -1z"/>
<path d="M24160 15916 c-164 -33 -247 -163 -184 -286 13 -25 40 -57 61 -71 41
-28 143 -69 171 -69 38 0 164 -44 187 -66 31 -29 33 -81 5 -114 -26 -30 -100
-49 -170 -43 -53 3 -180 54 -180 72 0 4 -11 13 -24 19 -32 14 -87 -13 -100
-51 -14 -38 14 -73 89 -114 129 -69 310 -77 426 -18 157 80 169 276 23 361
-26 15 -106 43 -178 61 -141 36 -172 51 -186 89 -22 57 31 103 125 109 70 5
130 -12 189 -52 53 -37 81 -41 114 -17 31 21 28 57 -9 98 -69 79 -226 119
-359 92z"/>
<path d="M26165 15913 c-179 -41 -292 -187 -293 -378 -1 -270 217 -444 485
-389 177 36 290 170 301 354 10 178 -68 314 -223 393 -62 31 -182 40 -270 20z
m209 -142 c82 -36 132 -111 143 -211 17 -168 -93 -296 -254 -293 -179 3 -291
167 -238 348 24 82 100 158 172 171 15 3 29 7 31 9 9 9 110 -7 146 -24z"/>
<path d="M28175 15915 c-52 -12 -103 -35 -127 -57 -39 -38 -45 -39 -42 -12 6
56 -73 94 -121 58 -19 -14 -20 -27 -20 -374 0 -347 1 -360 20 -374 29 -22 78
-20 101 5 18 19 19 40 20 263 1 266 5 284 65 326 59 43 107 50 273 39 28 -2
43 3 52 16 58 78 -75 144 -221 110z"/>
<path d="M28723 15908 c-87 -24 -144 -68 -169 -133 -21 -56 -14 -123 18 -165
39 -54 144 -108 241 -124 70 -12 144 -40 170 -64 29 -28 36 -74 14 -103 -44
-58 -193 -72 -285 -26 -29 14 -62 35 -74 47 -61 57 -166 -26 -115 -90 74 -94
304 -141 457 -95 170 52 231 246 111 354 -39 35 -96 58 -227 90 -126 31 -162
51 -177 95 -36 107 213 141 319 44 33 -30 87 -35 113 -9 27 27 27 51 0 85 -72
91 -248 133 -396 94z"/>
<path d="M31090 15916 c-198 -40 -318 -206 -305 -418 12 -185 130 -320 312
-354 186 -35 357 45 434 202 53 108 55 250 4 361 -73 160 -258 246 -445 209z
m203 -147 c142 -73 185 -273 86 -407 -61 -83 -203 -121 -300 -80 -167 71 -209
308 -78 440 75 75 197 95 292 47z"/>
<path d="M23007 15908 c-29 -23 -33 -59 -32 -258 2 -221 7 -264 42 -337 82
-176 344 -233 513 -113 34 24 40 25 40 3 1 -28 25 -52 57 -59 39 -8 69 8 80
43 14 44 9 673 -5 700 -15 27 -71 40 -101 24 -11 -7 -24 -23 -27 -38 -4 -14
-7 -125 -8 -247 -1 -187 -4 -226 -18 -252 -64 -119 -259 -143 -361 -46 -55 52
-60 77 -62 312 -1 118 -5 224 -9 236 -12 37 -77 56 -109 32z"/>
<path d="M26891 15902 c-24 -18 -24 -22 -25 -213 -2 -293 12 -363 92 -452 104
-114 319 -134 454 -42 44 30 48 31 48 5 0 -27 39 -60 72 -60 33 0 68 31 69 63
1 12 2 164 3 337 2 333 -1 361 -44 375 -32 10 -79 -4 -92 -28 -7 -14 -11 -101
-12 -252 -2 -253 -5 -267 -66 -318 -91 -77 -277 -56 -337 36 -35 55 -40 94
-41 278 0 241 0 243 -14 261 -21 27 -80 33 -107 10z"/>
<path d="M31790 15306 c-80 -46 -63 -165 27 -182 64 -12 116 34 116 102 0 67
-83 113 -143 80z"/>
</g>
</svg>
